<mxfile host="app.diagrams.net" modified="2023-05-09T09:37:42.628Z" agent="Mozilla/5.0 (Windows NT 10.0; Win64; x64) AppleWebKit/537.36 (KHTML, like Gecko) Chrome/113.0.0.0 Safari/537.36 Edg/113.0.1774.35" etag="Qv1iRt1SiCeDJS-uUkEs" version="21.2.9" type="github">
  <diagram name="第 1 页" id="MI-ieDbYh91ocRIQ-R7C">
    <mxGraphModel dx="1419" dy="780" grid="0" gridSize="10" guides="1" tooltips="1" connect="1" arrows="1" fold="1" page="1" pageScale="1" pageWidth="2339" pageHeight="3300" math="0" shadow="0">
      <root>
        <mxCell id="0" />
        <mxCell id="1" parent="0" />
        <mxCell id="ZNy7eVGZJxYftqAqynXO-81" value="" style="rounded=1;whiteSpace=wrap;html=1;dashed=1;" vertex="1" parent="1">
          <mxGeometry x="1009" y="379" width="413" height="383" as="geometry" />
        </mxCell>
        <mxCell id="ZNy7eVGZJxYftqAqynXO-9" style="edgeStyle=orthogonalEdgeStyle;rounded=0;orthogonalLoop=1;jettySize=auto;html=1;entryX=0.5;entryY=1;entryDx=0;entryDy=0;" edge="1" parent="1" target="ZNy7eVGZJxYftqAqynXO-4">
          <mxGeometry relative="1" as="geometry">
            <mxPoint x="878" y="423" as="sourcePoint" />
            <Array as="points">
              <mxPoint x="878" y="417" />
              <mxPoint x="878" y="417" />
            </Array>
          </mxGeometry>
        </mxCell>
        <mxCell id="ZNy7eVGZJxYftqAqynXO-10" style="rounded=0;orthogonalLoop=1;jettySize=auto;html=1;entryX=0.998;entryY=0.656;entryDx=0;entryDy=0;entryPerimeter=0;" edge="1" parent="1" target="ZNy7eVGZJxYftqAqynXO-2">
          <mxGeometry relative="1" as="geometry">
            <mxPoint x="845" y="441" as="sourcePoint" />
          </mxGeometry>
        </mxCell>
        <mxCell id="ZNy7eVGZJxYftqAqynXO-11" style="rounded=0;orthogonalLoop=1;jettySize=auto;html=1;entryX=0.03;entryY=0.713;entryDx=0;entryDy=0;entryPerimeter=0;" edge="1" parent="1" target="ZNy7eVGZJxYftqAqynXO-5">
          <mxGeometry relative="1" as="geometry">
            <mxPoint x="906" y="443" as="sourcePoint" />
          </mxGeometry>
        </mxCell>
        <mxCell id="ZNy7eVGZJxYftqAqynXO-12" style="rounded=0;orthogonalLoop=1;jettySize=auto;html=1;" edge="1" parent="1" target="ZNy7eVGZJxYftqAqynXO-8">
          <mxGeometry relative="1" as="geometry">
            <mxPoint x="919" y="474" as="sourcePoint" />
          </mxGeometry>
        </mxCell>
        <mxCell id="ZNy7eVGZJxYftqAqynXO-13" style="edgeStyle=orthogonalEdgeStyle;rounded=0;orthogonalLoop=1;jettySize=auto;html=1;" edge="1" parent="1" target="ZNy7eVGZJxYftqAqynXO-7">
          <mxGeometry relative="1" as="geometry">
            <mxPoint x="835" y="474" as="sourcePoint" />
          </mxGeometry>
        </mxCell>
        <mxCell id="ZNy7eVGZJxYftqAqynXO-14" style="rounded=0;orthogonalLoop=1;jettySize=auto;html=1;entryX=0.937;entryY=0.303;entryDx=0;entryDy=0;entryPerimeter=0;" edge="1" parent="1" target="ZNy7eVGZJxYftqAqynXO-3">
          <mxGeometry relative="1" as="geometry">
            <mxPoint x="847" y="510" as="sourcePoint" />
          </mxGeometry>
        </mxCell>
        <mxCell id="ZNy7eVGZJxYftqAqynXO-15" style="rounded=0;orthogonalLoop=1;jettySize=auto;html=1;entryX=0.074;entryY=0.197;entryDx=0;entryDy=0;entryPerimeter=0;" edge="1" parent="1" target="ZNy7eVGZJxYftqAqynXO-6">
          <mxGeometry relative="1" as="geometry">
            <mxPoint x="899" y="502" as="sourcePoint" />
          </mxGeometry>
        </mxCell>
        <mxCell id="ZNy7eVGZJxYftqAqynXO-1" value="Actor" style="shape=umlActor;verticalLabelPosition=bottom;verticalAlign=top;html=1;outlineConnect=0;fontSize=28;fontFamily=Comic Sans MS;labelPosition=center;align=center;fontColor=#FFFFFF;" vertex="1" parent="1">
          <mxGeometry x="849" y="440" width="58" height="103" as="geometry" />
        </mxCell>
        <mxCell id="ZNy7eVGZJxYftqAqynXO-50" style="rounded=0;orthogonalLoop=1;jettySize=auto;html=1;exitX=0;exitY=0;exitDx=0;exitDy=0;dashed=1;" edge="1" parent="1" source="ZNy7eVGZJxYftqAqynXO-2" target="ZNy7eVGZJxYftqAqynXO-49">
          <mxGeometry relative="1" as="geometry" />
        </mxCell>
        <mxCell id="ZNy7eVGZJxYftqAqynXO-51" style="rounded=0;orthogonalLoop=1;jettySize=auto;html=1;exitX=0.5;exitY=0;exitDx=0;exitDy=0;entryX=1;entryY=1;entryDx=0;entryDy=0;dashed=1;" edge="1" parent="1" source="ZNy7eVGZJxYftqAqynXO-2" target="ZNy7eVGZJxYftqAqynXO-48">
          <mxGeometry relative="1" as="geometry" />
        </mxCell>
        <mxCell id="ZNy7eVGZJxYftqAqynXO-52" style="rounded=0;orthogonalLoop=1;jettySize=auto;html=1;exitX=1;exitY=0;exitDx=0;exitDy=0;dashed=1;" edge="1" parent="1" source="ZNy7eVGZJxYftqAqynXO-2" target="ZNy7eVGZJxYftqAqynXO-45">
          <mxGeometry relative="1" as="geometry" />
        </mxCell>
        <mxCell id="ZNy7eVGZJxYftqAqynXO-2" value="个人信息管理" style="ellipse;whiteSpace=wrap;html=1;" vertex="1" parent="1">
          <mxGeometry x="573.5" y="315" width="110" height="74" as="geometry" />
        </mxCell>
        <mxCell id="ZNy7eVGZJxYftqAqynXO-23" style="rounded=0;orthogonalLoop=1;jettySize=auto;html=1;exitX=0;exitY=0;exitDx=0;exitDy=0;entryX=1;entryY=0.5;entryDx=0;entryDy=0;dashed=1;" edge="1" parent="1" source="ZNy7eVGZJxYftqAqynXO-3" target="ZNy7eVGZJxYftqAqynXO-22">
          <mxGeometry relative="1" as="geometry" />
        </mxCell>
        <mxCell id="ZNy7eVGZJxYftqAqynXO-24" style="rounded=0;orthogonalLoop=1;jettySize=auto;html=1;exitX=0;exitY=0.5;exitDx=0;exitDy=0;entryX=1;entryY=0.5;entryDx=0;entryDy=0;dashed=1;" edge="1" parent="1" source="ZNy7eVGZJxYftqAqynXO-3" target="ZNy7eVGZJxYftqAqynXO-21">
          <mxGeometry relative="1" as="geometry" />
        </mxCell>
        <mxCell id="ZNy7eVGZJxYftqAqynXO-25" style="rounded=0;orthogonalLoop=1;jettySize=auto;html=1;exitX=0;exitY=1;exitDx=0;exitDy=0;entryX=1;entryY=0.5;entryDx=0;entryDy=0;dashed=1;" edge="1" parent="1" source="ZNy7eVGZJxYftqAqynXO-3" target="ZNy7eVGZJxYftqAqynXO-20">
          <mxGeometry relative="1" as="geometry" />
        </mxCell>
        <mxCell id="ZNy7eVGZJxYftqAqynXO-3" value="环保积分奖励" style="ellipse;whiteSpace=wrap;html=1;" vertex="1" parent="1">
          <mxGeometry x="645" y="636" width="110" height="74" as="geometry" />
        </mxCell>
        <mxCell id="ZNy7eVGZJxYftqAqynXO-4" value="废旧物品分类" style="ellipse;whiteSpace=wrap;html=1;" vertex="1" parent="1">
          <mxGeometry x="823" y="276" width="110" height="74" as="geometry" />
        </mxCell>
        <mxCell id="ZNy7eVGZJxYftqAqynXO-58" style="rounded=0;orthogonalLoop=1;jettySize=auto;html=1;exitX=1;exitY=0.5;exitDx=0;exitDy=0;dashed=1;" edge="1" parent="1" source="ZNy7eVGZJxYftqAqynXO-5" target="ZNy7eVGZJxYftqAqynXO-57">
          <mxGeometry relative="1" as="geometry" />
        </mxCell>
        <mxCell id="ZNy7eVGZJxYftqAqynXO-5" value="回收排行榜" style="ellipse;whiteSpace=wrap;html=1;" vertex="1" parent="1">
          <mxGeometry x="1060" y="271" width="110" height="74" as="geometry" />
        </mxCell>
        <mxCell id="ZNy7eVGZJxYftqAqynXO-6" value="消息动态" style="ellipse;whiteSpace=wrap;html=1;" vertex="1" parent="1">
          <mxGeometry x="1067" y="596.5" width="110" height="74" as="geometry" />
        </mxCell>
        <mxCell id="ZNy7eVGZJxYftqAqynXO-38" style="rounded=0;orthogonalLoop=1;jettySize=auto;html=1;exitX=0;exitY=0;exitDx=0;exitDy=0;entryX=1;entryY=0.5;entryDx=0;entryDy=0;dashed=1;" edge="1" parent="1" source="ZNy7eVGZJxYftqAqynXO-7" target="ZNy7eVGZJxYftqAqynXO-35">
          <mxGeometry relative="1" as="geometry" />
        </mxCell>
        <mxCell id="ZNy7eVGZJxYftqAqynXO-39" style="rounded=0;orthogonalLoop=1;jettySize=auto;html=1;exitX=0;exitY=0.5;exitDx=0;exitDy=0;entryX=1;entryY=0.5;entryDx=0;entryDy=0;dashed=1;" edge="1" parent="1" source="ZNy7eVGZJxYftqAqynXO-7" target="ZNy7eVGZJxYftqAqynXO-36">
          <mxGeometry relative="1" as="geometry">
            <mxPoint x="595.0000000000007" y="519.0000000000002" as="sourcePoint" />
          </mxGeometry>
        </mxCell>
        <mxCell id="ZNy7eVGZJxYftqAqynXO-40" style="rounded=0;orthogonalLoop=1;jettySize=auto;html=1;exitX=0;exitY=1;exitDx=0;exitDy=0;entryX=1;entryY=0.5;entryDx=0;entryDy=0;dashed=1;" edge="1" parent="1" source="ZNy7eVGZJxYftqAqynXO-7" target="ZNy7eVGZJxYftqAqynXO-37">
          <mxGeometry relative="1" as="geometry" />
        </mxCell>
        <mxCell id="ZNy7eVGZJxYftqAqynXO-7" value="预约上门" style="ellipse;whiteSpace=wrap;html=1;" vertex="1" parent="1">
          <mxGeometry x="602" y="437" width="110" height="74" as="geometry" />
        </mxCell>
        <mxCell id="ZNy7eVGZJxYftqAqynXO-65" style="rounded=0;orthogonalLoop=1;jettySize=auto;html=1;exitX=1;exitY=0.5;exitDx=0;exitDy=0;dashed=1;" edge="1" parent="1" source="ZNy7eVGZJxYftqAqynXO-8" target="ZNy7eVGZJxYftqAqynXO-62">
          <mxGeometry relative="1" as="geometry" />
        </mxCell>
        <mxCell id="ZNy7eVGZJxYftqAqynXO-8" value="拍照打卡" style="ellipse;whiteSpace=wrap;html=1;" vertex="1" parent="1">
          <mxGeometry x="1067" y="440" width="110" height="74" as="geometry" />
        </mxCell>
        <mxCell id="ZNy7eVGZJxYftqAqynXO-20" value="奖品浏览" style="ellipse;whiteSpace=wrap;html=1;" vertex="1" parent="1">
          <mxGeometry x="410" y="743.5" width="106" height="62" as="geometry" />
        </mxCell>
        <mxCell id="ZNy7eVGZJxYftqAqynXO-21" value="兑换奖品" style="ellipse;whiteSpace=wrap;html=1;" vertex="1" parent="1">
          <mxGeometry x="410" y="674.5" width="106" height="62" as="geometry" />
        </mxCell>
        <mxCell id="ZNy7eVGZJxYftqAqynXO-22" value="查看兑换" style="ellipse;whiteSpace=wrap;html=1;" vertex="1" parent="1">
          <mxGeometry x="410" y="606.5" width="106" height="62" as="geometry" />
        </mxCell>
        <mxCell id="ZNy7eVGZJxYftqAqynXO-30" value="&amp;lt;&amp;lt;包含&amp;gt;&amp;gt;" style="text;html=1;strokeColor=none;fillColor=none;align=center;verticalAlign=middle;whiteSpace=wrap;rounded=0;" vertex="1" parent="1">
          <mxGeometry x="556" y="633" width="60" height="30" as="geometry" />
        </mxCell>
        <mxCell id="ZNy7eVGZJxYftqAqynXO-31" value="&amp;lt;&amp;lt;包含&amp;gt;&amp;gt;" style="text;html=1;strokeColor=none;fillColor=none;align=center;verticalAlign=middle;whiteSpace=wrap;rounded=0;" vertex="1" parent="1">
          <mxGeometry x="239" y="888" width="60" height="30" as="geometry" />
        </mxCell>
        <mxCell id="ZNy7eVGZJxYftqAqynXO-32" value="&amp;lt;&amp;lt;包含&amp;gt;&amp;gt;" style="text;html=1;strokeColor=none;fillColor=none;align=center;verticalAlign=middle;whiteSpace=wrap;rounded=0;" vertex="1" parent="1">
          <mxGeometry x="549" y="682" width="60" height="30" as="geometry" />
        </mxCell>
        <mxCell id="ZNy7eVGZJxYftqAqynXO-33" value="&amp;lt;&amp;lt;包含&amp;gt;&amp;gt;" style="text;html=1;strokeColor=none;fillColor=none;align=center;verticalAlign=middle;whiteSpace=wrap;rounded=0;" vertex="1" parent="1">
          <mxGeometry x="551" y="731" width="60" height="30" as="geometry" />
        </mxCell>
        <mxCell id="ZNy7eVGZJxYftqAqynXO-35" value="提交订单" style="ellipse;whiteSpace=wrap;html=1;" vertex="1" parent="1">
          <mxGeometry x="394" y="361" width="106" height="62" as="geometry" />
        </mxCell>
        <mxCell id="ZNy7eVGZJxYftqAqynXO-36" value="查看订单" style="ellipse;whiteSpace=wrap;html=1;" vertex="1" parent="1">
          <mxGeometry x="394" y="432" width="106" height="62" as="geometry" />
        </mxCell>
        <mxCell id="ZNy7eVGZJxYftqAqynXO-37" value="取消订单" style="ellipse;whiteSpace=wrap;html=1;" vertex="1" parent="1">
          <mxGeometry x="394" y="500" width="106" height="62" as="geometry" />
        </mxCell>
        <mxCell id="ZNy7eVGZJxYftqAqynXO-41" value="&amp;lt;&amp;lt;包含&amp;gt;&amp;gt;" style="text;html=1;strokeColor=none;fillColor=none;align=center;verticalAlign=middle;whiteSpace=wrap;rounded=0;" vertex="1" parent="1">
          <mxGeometry x="538" y="417" width="60" height="30" as="geometry" />
        </mxCell>
        <mxCell id="ZNy7eVGZJxYftqAqynXO-43" value="&amp;lt;&amp;lt;包含&amp;gt;&amp;gt;" style="text;html=1;strokeColor=none;fillColor=none;align=center;verticalAlign=middle;whiteSpace=wrap;rounded=0;" vertex="1" parent="1">
          <mxGeometry x="525" y="468" width="60" height="30" as="geometry" />
        </mxCell>
        <mxCell id="ZNy7eVGZJxYftqAqynXO-44" value="&amp;lt;&amp;lt;包含&amp;gt;&amp;gt;" style="text;html=1;strokeColor=none;fillColor=none;align=center;verticalAlign=middle;whiteSpace=wrap;rounded=0;" vertex="1" parent="1">
          <mxGeometry x="521" y="511" width="60" height="30" as="geometry" />
        </mxCell>
        <mxCell id="ZNy7eVGZJxYftqAqynXO-45" value="修改信息" style="ellipse;whiteSpace=wrap;html=1;" vertex="1" parent="1">
          <mxGeometry x="573.5" y="146" width="106" height="62" as="geometry" />
        </mxCell>
        <mxCell id="ZNy7eVGZJxYftqAqynXO-48" value="查看信息" style="ellipse;whiteSpace=wrap;html=1;" vertex="1" parent="1">
          <mxGeometry x="467.5" y="181" width="106" height="62" as="geometry" />
        </mxCell>
        <mxCell id="ZNy7eVGZJxYftqAqynXO-49" value="地址管理" style="ellipse;whiteSpace=wrap;html=1;" vertex="1" parent="1">
          <mxGeometry x="405.5" y="253" width="106" height="62" as="geometry" />
        </mxCell>
        <mxCell id="ZNy7eVGZJxYftqAqynXO-53" value="&amp;lt;&amp;lt;包含&amp;gt;&amp;gt;" style="text;html=1;strokeColor=none;fillColor=none;align=center;verticalAlign=middle;whiteSpace=wrap;rounded=0;" vertex="1" parent="1">
          <mxGeometry x="584.5" y="261" width="60" height="30" as="geometry" />
        </mxCell>
        <mxCell id="ZNy7eVGZJxYftqAqynXO-54" value="&amp;lt;&amp;lt;包含&amp;gt;&amp;gt;" style="text;html=1;strokeColor=none;fillColor=none;align=center;verticalAlign=middle;whiteSpace=wrap;rounded=0;" vertex="1" parent="1">
          <mxGeometry x="520.5" y="288" width="60" height="30" as="geometry" />
        </mxCell>
        <mxCell id="ZNy7eVGZJxYftqAqynXO-55" value="&amp;lt;&amp;lt;包含&amp;gt;&amp;gt;" style="text;html=1;strokeColor=none;fillColor=none;align=center;verticalAlign=middle;whiteSpace=wrap;rounded=0;" vertex="1" parent="1">
          <mxGeometry x="644.5" y="247" width="60" height="30" as="geometry" />
        </mxCell>
        <mxCell id="ZNy7eVGZJxYftqAqynXO-57" value="查看排行榜信息" style="ellipse;whiteSpace=wrap;html=1;" vertex="1" parent="1">
          <mxGeometry x="1242" y="277" width="106" height="62" as="geometry" />
        </mxCell>
        <mxCell id="ZNy7eVGZJxYftqAqynXO-60" value="&amp;lt;&amp;lt;包含&amp;gt;&amp;gt;" style="text;html=1;strokeColor=none;fillColor=none;align=center;verticalAlign=middle;whiteSpace=wrap;rounded=0;" vertex="1" parent="1">
          <mxGeometry x="1177" y="277" width="60" height="30" as="geometry" />
        </mxCell>
        <mxCell id="ZNy7eVGZJxYftqAqynXO-62" value="发布打卡信息" style="ellipse;whiteSpace=wrap;html=1;" vertex="1" parent="1">
          <mxGeometry x="1242" y="446" width="106" height="62" as="geometry" />
        </mxCell>
        <mxCell id="ZNy7eVGZJxYftqAqynXO-67" value="&amp;lt;&amp;lt;包含&amp;gt;&amp;gt;" style="text;html=1;strokeColor=none;fillColor=none;align=center;verticalAlign=middle;whiteSpace=wrap;rounded=0;" vertex="1" parent="1">
          <mxGeometry x="1177" y="449" width="60" height="30" as="geometry" />
        </mxCell>
        <mxCell id="ZNy7eVGZJxYftqAqynXO-69" style="rounded=0;orthogonalLoop=1;jettySize=auto;html=1;exitX=1;exitY=0;exitDx=0;exitDy=0;entryX=0;entryY=0.5;entryDx=0;entryDy=0;dashed=1;" edge="1" parent="1" target="ZNy7eVGZJxYftqAqynXO-73" source="ZNy7eVGZJxYftqAqynXO-6">
          <mxGeometry relative="1" as="geometry">
            <mxPoint x="1177.0399999999997" y="559.98" as="sourcePoint" />
          </mxGeometry>
        </mxCell>
        <mxCell id="ZNy7eVGZJxYftqAqynXO-70" style="rounded=0;orthogonalLoop=1;jettySize=auto;html=1;exitX=1;exitY=0.5;exitDx=0;exitDy=0;dashed=1;" edge="1" parent="1" target="ZNy7eVGZJxYftqAqynXO-74" source="ZNy7eVGZJxYftqAqynXO-6">
          <mxGeometry relative="1" as="geometry">
            <mxPoint x="1181.11" y="577" as="sourcePoint" />
          </mxGeometry>
        </mxCell>
        <mxCell id="ZNy7eVGZJxYftqAqynXO-71" style="rounded=0;orthogonalLoop=1;jettySize=auto;html=1;exitX=1;exitY=1;exitDx=0;exitDy=0;dashed=1;" edge="1" parent="1" target="ZNy7eVGZJxYftqAqynXO-75" source="ZNy7eVGZJxYftqAqynXO-6">
          <mxGeometry relative="1" as="geometry">
            <mxPoint x="1165.0008729652598" y="603.1629509039021" as="sourcePoint" />
          </mxGeometry>
        </mxCell>
        <mxCell id="ZNy7eVGZJxYftqAqynXO-72" value="&amp;lt;&amp;lt;包含&amp;gt;&amp;gt;" style="text;html=1;strokeColor=none;fillColor=none;align=center;verticalAlign=middle;whiteSpace=wrap;rounded=0;" vertex="1" parent="1">
          <mxGeometry x="1180" y="559" width="60" height="30" as="geometry" />
        </mxCell>
        <mxCell id="ZNy7eVGZJxYftqAqynXO-73" value="查看发布的信息" style="ellipse;whiteSpace=wrap;html=1;" vertex="1" parent="1">
          <mxGeometry x="1265.11" y="533.5" width="106" height="62" as="geometry" />
        </mxCell>
        <mxCell id="ZNy7eVGZJxYftqAqynXO-74" value="发布信息" style="ellipse;whiteSpace=wrap;html=1;" vertex="1" parent="1">
          <mxGeometry x="1265.11" y="606.5" width="106" height="62" as="geometry" />
        </mxCell>
        <mxCell id="ZNy7eVGZJxYftqAqynXO-75" value="删除发布信息" style="ellipse;whiteSpace=wrap;html=1;" vertex="1" parent="1">
          <mxGeometry x="1265.11" y="680" width="106" height="62" as="geometry" />
        </mxCell>
        <mxCell id="ZNy7eVGZJxYftqAqynXO-76" value="&amp;lt;&amp;lt;包含&amp;gt;&amp;gt;" style="text;html=1;strokeColor=none;fillColor=none;align=center;verticalAlign=middle;whiteSpace=wrap;rounded=0;" vertex="1" parent="1">
          <mxGeometry x="1187" y="606.5" width="60" height="30" as="geometry" />
        </mxCell>
        <mxCell id="ZNy7eVGZJxYftqAqynXO-77" value="&amp;lt;&amp;lt;包含&amp;gt;&amp;gt;" style="text;html=1;strokeColor=none;fillColor=none;align=center;verticalAlign=middle;whiteSpace=wrap;rounded=0;" vertex="1" parent="1">
          <mxGeometry x="1187" y="658" width="60" height="30" as="geometry" />
        </mxCell>
        <mxCell id="ZNy7eVGZJxYftqAqynXO-82" value="消息模块" style="text;html=1;strokeColor=none;fillColor=none;align=center;verticalAlign=middle;whiteSpace=wrap;rounded=0;fontSize=22;fontStyle=1" vertex="1" parent="1">
          <mxGeometry x="1175" y="393" width="121" height="42" as="geometry" />
        </mxCell>
        <mxCell id="ZNy7eVGZJxYftqAqynXO-84" value="用户" style="text;html=1;strokeColor=none;fillColor=none;align=center;verticalAlign=middle;whiteSpace=wrap;rounded=0;fontSize=33;" vertex="1" parent="1">
          <mxGeometry x="809" y="526" width="150" height="77" as="geometry" />
        </mxCell>
        <mxCell id="ZNy7eVGZJxYftqAqynXO-85" value="Actor" style="shape=umlActor;verticalLabelPosition=bottom;verticalAlign=top;html=1;outlineConnect=0;fontColor=#FFFFFF;" vertex="1" parent="1">
          <mxGeometry x="742" y="1438" width="58" height="108" as="geometry" />
        </mxCell>
        <mxCell id="ZNy7eVGZJxYftqAqynXO-86" value="个人信息管理" style="ellipse;whiteSpace=wrap;html=1;" vertex="1" parent="1">
          <mxGeometry x="716" y="1320" width="110" height="69" as="geometry" />
        </mxCell>
        <mxCell id="ZNy7eVGZJxYftqAqynXO-116" style="rounded=0;orthogonalLoop=1;jettySize=auto;html=1;exitX=0;exitY=0;exitDx=0;exitDy=0;entryX=1;entryY=0.5;entryDx=0;entryDy=0;dashed=1;" edge="1" parent="1" source="ZNy7eVGZJxYftqAqynXO-87" target="ZNy7eVGZJxYftqAqynXO-113">
          <mxGeometry relative="1" as="geometry" />
        </mxCell>
        <mxCell id="ZNy7eVGZJxYftqAqynXO-118" style="rounded=0;orthogonalLoop=1;jettySize=auto;html=1;exitX=0;exitY=0.5;exitDx=0;exitDy=0;entryX=1;entryY=0.5;entryDx=0;entryDy=0;dashed=1;" edge="1" parent="1" source="ZNy7eVGZJxYftqAqynXO-87" target="ZNy7eVGZJxYftqAqynXO-114">
          <mxGeometry relative="1" as="geometry" />
        </mxCell>
        <mxCell id="ZNy7eVGZJxYftqAqynXO-119" style="rounded=0;orthogonalLoop=1;jettySize=auto;html=1;exitX=0;exitY=1;exitDx=0;exitDy=0;entryX=1;entryY=0.5;entryDx=0;entryDy=0;dashed=1;" edge="1" parent="1" source="ZNy7eVGZJxYftqAqynXO-87" target="ZNy7eVGZJxYftqAqynXO-115">
          <mxGeometry relative="1" as="geometry" />
        </mxCell>
        <mxCell id="ZNy7eVGZJxYftqAqynXO-87" value="上传审核" style="ellipse;whiteSpace=wrap;html=1;" vertex="1" parent="1">
          <mxGeometry x="567.5" y="1475.5" width="116" height="69" as="geometry" />
        </mxCell>
        <mxCell id="ZNy7eVGZJxYftqAqynXO-111" style="rounded=0;orthogonalLoop=1;jettySize=auto;html=1;exitX=1;exitY=0.5;exitDx=0;exitDy=0;entryX=0;entryY=0.5;entryDx=0;entryDy=0;dashed=1;" edge="1" parent="1" source="ZNy7eVGZJxYftqAqynXO-88" target="ZNy7eVGZJxYftqAqynXO-109">
          <mxGeometry relative="1" as="geometry" />
        </mxCell>
        <mxCell id="ZNy7eVGZJxYftqAqynXO-88" value="回收状态管理" style="ellipse;whiteSpace=wrap;html=1;" vertex="1" parent="1">
          <mxGeometry x="849" y="1477" width="116" height="69" as="geometry" />
        </mxCell>
        <mxCell id="ZNy7eVGZJxYftqAqynXO-89" value="" style="endArrow=classic;html=1;rounded=0;entryX=0.5;entryY=1;entryDx=0;entryDy=0;" edge="1" parent="1" target="ZNy7eVGZJxYftqAqynXO-86">
          <mxGeometry width="50" height="50" relative="1" as="geometry">
            <mxPoint x="771" y="1429" as="sourcePoint" />
            <mxPoint x="774" y="1383" as="targetPoint" />
          </mxGeometry>
        </mxCell>
        <mxCell id="ZNy7eVGZJxYftqAqynXO-90" value="" style="endArrow=classic;html=1;rounded=0;entryX=0;entryY=0.5;entryDx=0;entryDy=0;" edge="1" parent="1" target="ZNy7eVGZJxYftqAqynXO-88">
          <mxGeometry width="50" height="50" relative="1" as="geometry">
            <mxPoint x="804" y="1513" as="sourcePoint" />
            <mxPoint x="878" y="1512" as="targetPoint" />
          </mxGeometry>
        </mxCell>
        <mxCell id="ZNy7eVGZJxYftqAqynXO-91" value="" style="endArrow=classic;html=1;rounded=0;entryX=1;entryY=0.5;entryDx=0;entryDy=0;" edge="1" parent="1" target="ZNy7eVGZJxYftqAqynXO-87">
          <mxGeometry width="50" height="50" relative="1" as="geometry">
            <mxPoint x="741" y="1510" as="sourcePoint" />
            <mxPoint x="747" y="1511" as="targetPoint" />
          </mxGeometry>
        </mxCell>
        <mxCell id="ZNy7eVGZJxYftqAqynXO-99" style="rounded=0;orthogonalLoop=1;jettySize=auto;html=1;exitX=1;exitY=0;exitDx=0;exitDy=0;entryX=0;entryY=1;entryDx=0;entryDy=0;dashed=1;" edge="1" parent="1" source="ZNy7eVGZJxYftqAqynXO-92" target="ZNy7eVGZJxYftqAqynXO-96">
          <mxGeometry relative="1" as="geometry" />
        </mxCell>
        <mxCell id="ZNy7eVGZJxYftqAqynXO-100" style="rounded=0;orthogonalLoop=1;jettySize=auto;html=1;exitX=0.5;exitY=0;exitDx=0;exitDy=0;dashed=1;" edge="1" parent="1" source="ZNy7eVGZJxYftqAqynXO-92" target="ZNy7eVGZJxYftqAqynXO-97">
          <mxGeometry relative="1" as="geometry">
            <mxPoint x="767.5" y="1186" as="sourcePoint" />
          </mxGeometry>
        </mxCell>
        <mxCell id="ZNy7eVGZJxYftqAqynXO-101" style="rounded=0;orthogonalLoop=1;jettySize=auto;html=1;exitX=0;exitY=0;exitDx=0;exitDy=0;entryX=1;entryY=1;entryDx=0;entryDy=0;dashed=1;" edge="1" parent="1" source="ZNy7eVGZJxYftqAqynXO-92" target="ZNy7eVGZJxYftqAqynXO-98">
          <mxGeometry relative="1" as="geometry" />
        </mxCell>
        <mxCell id="ZNy7eVGZJxYftqAqynXO-102" style="rounded=0;orthogonalLoop=1;jettySize=auto;html=1;exitX=1;exitY=0.5;exitDx=0;exitDy=0;entryX=0;entryY=0.5;entryDx=0;entryDy=0;dashed=1;" edge="1" parent="1" source="ZNy7eVGZJxYftqAqynXO-92" target="ZNy7eVGZJxYftqAqynXO-103">
          <mxGeometry relative="1" as="geometry">
            <mxPoint x="887.7511524873621" y="1236.1176470588236" as="targetPoint" />
          </mxGeometry>
        </mxCell>
        <mxCell id="ZNy7eVGZJxYftqAqynXO-92" value="查看信息" style="ellipse;whiteSpace=wrap;html=1;" vertex="1" parent="1">
          <mxGeometry x="716" y="1202" width="110" height="69" as="geometry" />
        </mxCell>
        <mxCell id="ZNy7eVGZJxYftqAqynXO-93" value="" style="endArrow=classic;html=1;rounded=0;entryX=0.5;entryY=1;entryDx=0;entryDy=0;exitX=0.5;exitY=0;exitDx=0;exitDy=0;dashed=1;" edge="1" parent="1" source="ZNy7eVGZJxYftqAqynXO-86" target="ZNy7eVGZJxYftqAqynXO-92">
          <mxGeometry width="50" height="50" relative="1" as="geometry">
            <mxPoint x="693" y="1304" as="sourcePoint" />
            <mxPoint x="743" y="1254" as="targetPoint" />
          </mxGeometry>
        </mxCell>
        <mxCell id="ZNy7eVGZJxYftqAqynXO-96" value="回收次数" style="ellipse;whiteSpace=wrap;html=1;" vertex="1" parent="1">
          <mxGeometry x="850" y="1093" width="109" height="67" as="geometry" />
        </mxCell>
        <mxCell id="ZNy7eVGZJxYftqAqynXO-97" value="超时次数" style="ellipse;whiteSpace=wrap;html=1;" vertex="1" parent="1">
          <mxGeometry x="712" y="1077" width="109" height="67" as="geometry" />
        </mxCell>
        <mxCell id="ZNy7eVGZJxYftqAqynXO-98" value="违约次数" style="ellipse;whiteSpace=wrap;html=1;" vertex="1" parent="1">
          <mxGeometry x="560" y="1140" width="109" height="67" as="geometry" />
        </mxCell>
        <mxCell id="ZNy7eVGZJxYftqAqynXO-103" value="个人信息" style="ellipse;whiteSpace=wrap;html=1;" vertex="1" parent="1">
          <mxGeometry x="889" y="1175" width="107" height="66" as="geometry" />
        </mxCell>
        <mxCell id="ZNy7eVGZJxYftqAqynXO-104" value="&amp;lt;&amp;lt;包含&amp;gt;&amp;gt;" style="text;html=1;strokeColor=none;fillColor=none;align=center;verticalAlign=middle;whiteSpace=wrap;rounded=0;" vertex="1" parent="1">
          <mxGeometry x="763" y="1287" width="60" height="30" as="geometry" />
        </mxCell>
        <mxCell id="ZNy7eVGZJxYftqAqynXO-105" value="&amp;lt;&amp;lt;包含&amp;gt;&amp;gt;" style="text;html=1;strokeColor=none;fillColor=none;align=center;verticalAlign=middle;whiteSpace=wrap;rounded=0;" vertex="1" parent="1">
          <mxGeometry x="672" y="1181" width="60" height="30" as="geometry" />
        </mxCell>
        <mxCell id="ZNy7eVGZJxYftqAqynXO-106" value="&amp;lt;&amp;lt;包含&amp;gt;&amp;gt;" style="text;html=1;strokeColor=none;fillColor=none;align=center;verticalAlign=middle;whiteSpace=wrap;rounded=0;" vertex="1" parent="1">
          <mxGeometry x="755" y="1158.5" width="60" height="30" as="geometry" />
        </mxCell>
        <mxCell id="ZNy7eVGZJxYftqAqynXO-107" value="&amp;lt;&amp;lt;包含&amp;gt;&amp;gt;" style="text;html=1;strokeColor=none;fillColor=none;align=center;verticalAlign=middle;whiteSpace=wrap;rounded=0;" vertex="1" parent="1">
          <mxGeometry x="821" y="1169" width="60" height="30" as="geometry" />
        </mxCell>
        <mxCell id="ZNy7eVGZJxYftqAqynXO-108" value="&amp;lt;&amp;lt;包含&amp;gt;&amp;gt;" style="text;html=1;strokeColor=none;fillColor=none;align=center;verticalAlign=middle;whiteSpace=wrap;rounded=0;" vertex="1" parent="1">
          <mxGeometry x="836" y="1219" width="60" height="30" as="geometry" />
        </mxCell>
        <mxCell id="ZNy7eVGZJxYftqAqynXO-109" value="查看订单列表状态" style="ellipse;whiteSpace=wrap;html=1;" vertex="1" parent="1">
          <mxGeometry x="1023" y="1478.5" width="114" height="66" as="geometry" />
        </mxCell>
        <mxCell id="ZNy7eVGZJxYftqAqynXO-112" value="&amp;lt;&amp;lt;包含&amp;gt;&amp;gt;" style="text;html=1;strokeColor=none;fillColor=none;align=center;verticalAlign=middle;whiteSpace=wrap;rounded=0;" vertex="1" parent="1">
          <mxGeometry x="965" y="1481" width="60" height="30" as="geometry" />
        </mxCell>
        <mxCell id="ZNy7eVGZJxYftqAqynXO-113" value="核实用户身份" style="ellipse;whiteSpace=wrap;html=1;" vertex="1" parent="1">
          <mxGeometry x="423" y="1397" width="118" height="73" as="geometry" />
        </mxCell>
        <mxCell id="ZNy7eVGZJxYftqAqynXO-114" value="确认物品类别、数量、质量" style="ellipse;whiteSpace=wrap;html=1;" vertex="1" parent="1">
          <mxGeometry x="404" y="1478.5" width="118" height="73" as="geometry" />
        </mxCell>
        <mxCell id="ZNy7eVGZJxYftqAqynXO-115" value="提交描述信息" style="ellipse;whiteSpace=wrap;html=1;" vertex="1" parent="1">
          <mxGeometry x="420" y="1562" width="118" height="73" as="geometry" />
        </mxCell>
        <mxCell id="ZNy7eVGZJxYftqAqynXO-120" value="&amp;lt;&amp;lt;包含&amp;gt;&amp;gt;" style="text;html=1;strokeColor=none;fillColor=none;align=center;verticalAlign=middle;whiteSpace=wrap;rounded=0;" vertex="1" parent="1">
          <mxGeometry x="556" y="1445.5" width="60" height="30" as="geometry" />
        </mxCell>
        <mxCell id="ZNy7eVGZJxYftqAqynXO-121" value="&amp;lt;&amp;lt;包含&amp;gt;&amp;gt;" style="text;html=1;strokeColor=none;fillColor=none;align=center;verticalAlign=middle;whiteSpace=wrap;rounded=0;" vertex="1" parent="1">
          <mxGeometry x="513.5" y="1485" width="60" height="30" as="geometry" />
        </mxCell>
        <mxCell id="ZNy7eVGZJxYftqAqynXO-122" value="&amp;lt;&amp;lt;包含&amp;gt;&amp;gt;" style="text;html=1;strokeColor=none;fillColor=none;align=center;verticalAlign=middle;whiteSpace=wrap;rounded=0;" vertex="1" parent="1">
          <mxGeometry x="520.5" y="1537" width="60" height="30" as="geometry" />
        </mxCell>
        <mxCell id="ZNy7eVGZJxYftqAqynXO-123" value="回收工作人员" style="text;html=1;strokeColor=none;fillColor=none;align=center;verticalAlign=middle;whiteSpace=wrap;rounded=0;fontSize=22;fontStyle=1" vertex="1" parent="1">
          <mxGeometry x="658.5" y="1548" width="225" height="87" as="geometry" />
        </mxCell>
        <mxCell id="ZNy7eVGZJxYftqAqynXO-124" value="Actor" style="shape=umlActor;verticalLabelPosition=bottom;verticalAlign=top;html=1;fontColor=none;noLabel=1;" vertex="1" parent="1">
          <mxGeometry x="725" y="2318" width="55" height="108" as="geometry" />
        </mxCell>
        <mxCell id="ZNy7eVGZJxYftqAqynXO-125" value="捐献物品公示" style="ellipse;whiteSpace=wrap;html=1;" vertex="1" parent="1">
          <mxGeometry x="668" y="2202" width="112" height="58" as="geometry" />
        </mxCell>
        <mxCell id="ZNy7eVGZJxYftqAqynXO-132" style="rounded=0;orthogonalLoop=1;jettySize=auto;html=1;exitX=0;exitY=0.5;exitDx=0;exitDy=0;entryX=1;entryY=0.5;entryDx=0;entryDy=0;dashed=1;" edge="1" parent="1" source="ZNy7eVGZJxYftqAqynXO-126" target="ZNy7eVGZJxYftqAqynXO-131">
          <mxGeometry relative="1" as="geometry" />
        </mxCell>
        <mxCell id="ZNy7eVGZJxYftqAqynXO-126" value="人工审核物品信息" style="ellipse;whiteSpace=wrap;html=1;" vertex="1" parent="1">
          <mxGeometry x="531" y="2281" width="112" height="58" as="geometry" />
        </mxCell>
        <mxCell id="ZNy7eVGZJxYftqAqynXO-136" style="rounded=0;orthogonalLoop=1;jettySize=auto;html=1;exitX=0;exitY=0.5;exitDx=0;exitDy=0;dashed=1;" edge="1" parent="1" source="ZNy7eVGZJxYftqAqynXO-127" target="ZNy7eVGZJxYftqAqynXO-134">
          <mxGeometry relative="1" as="geometry" />
        </mxCell>
        <mxCell id="ZNy7eVGZJxYftqAqynXO-138" style="rounded=0;orthogonalLoop=1;jettySize=auto;html=1;exitX=0;exitY=1;exitDx=0;exitDy=0;entryX=1;entryY=0;entryDx=0;entryDy=0;dashed=1;" edge="1" parent="1" source="ZNy7eVGZJxYftqAqynXO-127" target="ZNy7eVGZJxYftqAqynXO-135">
          <mxGeometry relative="1" as="geometry" />
        </mxCell>
        <mxCell id="ZNy7eVGZJxYftqAqynXO-127" value="消息动态管理" style="ellipse;whiteSpace=wrap;html=1;" vertex="1" parent="1">
          <mxGeometry x="557" y="2426" width="112" height="58" as="geometry" />
        </mxCell>
        <mxCell id="ZNy7eVGZJxYftqAqynXO-158" style="rounded=0;orthogonalLoop=1;jettySize=auto;html=1;exitX=1;exitY=0;exitDx=0;exitDy=0;entryX=0;entryY=1;entryDx=0;entryDy=0;dashed=1;" edge="1" parent="1" source="ZNy7eVGZJxYftqAqynXO-128" target="ZNy7eVGZJxYftqAqynXO-139">
          <mxGeometry relative="1" as="geometry" />
        </mxCell>
        <mxCell id="ZNy7eVGZJxYftqAqynXO-159" style="rounded=0;orthogonalLoop=1;jettySize=auto;html=1;exitX=1;exitY=1;exitDx=0;exitDy=0;entryX=0;entryY=0.5;entryDx=0;entryDy=0;dashed=1;" edge="1" parent="1" source="ZNy7eVGZJxYftqAqynXO-128" target="ZNy7eVGZJxYftqAqynXO-140">
          <mxGeometry relative="1" as="geometry" />
        </mxCell>
        <mxCell id="ZNy7eVGZJxYftqAqynXO-128" value="人员管理" style="ellipse;whiteSpace=wrap;html=1;" vertex="1" parent="1">
          <mxGeometry x="826" y="2272" width="112" height="58" as="geometry" />
        </mxCell>
        <mxCell id="ZNy7eVGZJxYftqAqynXO-155" style="rounded=0;orthogonalLoop=1;jettySize=auto;html=1;exitX=1;exitY=0.5;exitDx=0;exitDy=0;entryX=0;entryY=0;entryDx=0;entryDy=0;dashed=1;" edge="1" parent="1" source="ZNy7eVGZJxYftqAqynXO-129" target="ZNy7eVGZJxYftqAqynXO-147">
          <mxGeometry relative="1" as="geometry" />
        </mxCell>
        <mxCell id="ZNy7eVGZJxYftqAqynXO-156" style="rounded=0;orthogonalLoop=1;jettySize=auto;html=1;exitX=0.5;exitY=1;exitDx=0;exitDy=0;entryX=0.5;entryY=0;entryDx=0;entryDy=0;dashed=1;" edge="1" parent="1" source="ZNy7eVGZJxYftqAqynXO-129" target="ZNy7eVGZJxYftqAqynXO-148">
          <mxGeometry relative="1" as="geometry" />
        </mxCell>
        <mxCell id="ZNy7eVGZJxYftqAqynXO-157" style="rounded=0;orthogonalLoop=1;jettySize=auto;html=1;exitX=0;exitY=1;exitDx=0;exitDy=0;entryX=0.5;entryY=0;entryDx=0;entryDy=0;dashed=1;" edge="1" parent="1" source="ZNy7eVGZJxYftqAqynXO-129" target="ZNy7eVGZJxYftqAqynXO-149">
          <mxGeometry relative="1" as="geometry" />
        </mxCell>
        <mxCell id="ZNy7eVGZJxYftqAqynXO-129" value="回收物品管理" style="ellipse;whiteSpace=wrap;html=1;" vertex="1" parent="1">
          <mxGeometry x="843" y="2430" width="112" height="58" as="geometry" />
        </mxCell>
        <mxCell id="ZNy7eVGZJxYftqAqynXO-131" value="查看物品信息" style="ellipse;whiteSpace=wrap;html=1;" vertex="1" parent="1">
          <mxGeometry x="346" y="2280" width="110" height="61" as="geometry" />
        </mxCell>
        <mxCell id="ZNy7eVGZJxYftqAqynXO-134" value="恶意、不良信息拦截" style="ellipse;whiteSpace=wrap;html=1;" vertex="1" parent="1">
          <mxGeometry x="373" y="2424.5" width="121" height="63.5" as="geometry" />
        </mxCell>
        <mxCell id="ZNy7eVGZJxYftqAqynXO-135" value="官方通知信息" style="ellipse;whiteSpace=wrap;html=1;" vertex="1" parent="1">
          <mxGeometry x="445" y="2527" width="115" height="62" as="geometry" />
        </mxCell>
        <mxCell id="ZNy7eVGZJxYftqAqynXO-150" style="rounded=0;orthogonalLoop=1;jettySize=auto;html=1;exitX=0;exitY=0;exitDx=0;exitDy=0;entryX=1;entryY=1;entryDx=0;entryDy=0;dashed=1;" edge="1" parent="1" source="ZNy7eVGZJxYftqAqynXO-139" target="ZNy7eVGZJxYftqAqynXO-141">
          <mxGeometry relative="1" as="geometry" />
        </mxCell>
        <mxCell id="ZNy7eVGZJxYftqAqynXO-151" style="rounded=0;orthogonalLoop=1;jettySize=auto;html=1;exitX=0.5;exitY=0;exitDx=0;exitDy=0;entryX=0.5;entryY=1;entryDx=0;entryDy=0;dashed=1;" edge="1" parent="1" source="ZNy7eVGZJxYftqAqynXO-139" target="ZNy7eVGZJxYftqAqynXO-142">
          <mxGeometry relative="1" as="geometry" />
        </mxCell>
        <mxCell id="ZNy7eVGZJxYftqAqynXO-152" style="rounded=0;orthogonalLoop=1;jettySize=auto;html=1;exitX=1;exitY=0;exitDx=0;exitDy=0;entryX=0;entryY=1;entryDx=0;entryDy=0;dashed=1;" edge="1" parent="1" source="ZNy7eVGZJxYftqAqynXO-139" target="ZNy7eVGZJxYftqAqynXO-143">
          <mxGeometry relative="1" as="geometry" />
        </mxCell>
        <mxCell id="ZNy7eVGZJxYftqAqynXO-139" value="用户管理" style="ellipse;whiteSpace=wrap;html=1;" vertex="1" parent="1">
          <mxGeometry x="987" y="2202" width="110" height="61" as="geometry" />
        </mxCell>
        <mxCell id="ZNy7eVGZJxYftqAqynXO-153" style="rounded=0;orthogonalLoop=1;jettySize=auto;html=1;exitX=1;exitY=0.5;exitDx=0;exitDy=0;entryX=0;entryY=0.5;entryDx=0;entryDy=0;dashed=1;" edge="1" parent="1" source="ZNy7eVGZJxYftqAqynXO-140" target="ZNy7eVGZJxYftqAqynXO-145">
          <mxGeometry relative="1" as="geometry" />
        </mxCell>
        <mxCell id="ZNy7eVGZJxYftqAqynXO-154" style="rounded=0;orthogonalLoop=1;jettySize=auto;html=1;exitX=1;exitY=1;exitDx=0;exitDy=0;entryX=0;entryY=0;entryDx=0;entryDy=0;dashed=1;" edge="1" parent="1" source="ZNy7eVGZJxYftqAqynXO-140" target="ZNy7eVGZJxYftqAqynXO-146">
          <mxGeometry relative="1" as="geometry" />
        </mxCell>
        <mxCell id="ZNy7eVGZJxYftqAqynXO-140" value="回收人员管理" style="ellipse;whiteSpace=wrap;html=1;" vertex="1" parent="1">
          <mxGeometry x="987" y="2310" width="110" height="61" as="geometry" />
        </mxCell>
        <mxCell id="ZNy7eVGZJxYftqAqynXO-141" value="用户禁用" style="ellipse;whiteSpace=wrap;html=1;" vertex="1" parent="1">
          <mxGeometry x="875" y="2146" width="112" height="58" as="geometry" />
        </mxCell>
        <mxCell id="ZNy7eVGZJxYftqAqynXO-142" value="用户修改" style="ellipse;whiteSpace=wrap;html=1;" vertex="1" parent="1">
          <mxGeometry x="990" y="2110" width="112" height="58" as="geometry" />
        </mxCell>
        <mxCell id="ZNy7eVGZJxYftqAqynXO-143" value="用户详情" style="ellipse;whiteSpace=wrap;html=1;" vertex="1" parent="1">
          <mxGeometry x="1107" y="2144" width="112" height="58" as="geometry" />
        </mxCell>
        <mxCell id="ZNy7eVGZJxYftqAqynXO-145" value="回收人员新增" style="ellipse;whiteSpace=wrap;html=1;" vertex="1" parent="1">
          <mxGeometry x="1146" y="2311.5" width="112" height="58" as="geometry" />
        </mxCell>
        <mxCell id="ZNy7eVGZJxYftqAqynXO-146" value="回收人员删除" style="ellipse;whiteSpace=wrap;html=1;" vertex="1" parent="1">
          <mxGeometry x="1084" y="2385" width="112" height="58" as="geometry" />
        </mxCell>
        <mxCell id="ZNy7eVGZJxYftqAqynXO-147" value="物品信息查看" style="ellipse;whiteSpace=wrap;html=1;" vertex="1" parent="1">
          <mxGeometry x="990" y="2465" width="112" height="58" as="geometry" />
        </mxCell>
        <mxCell id="ZNy7eVGZJxYftqAqynXO-148" value="物品信息修改" style="ellipse;whiteSpace=wrap;html=1;" vertex="1" parent="1">
          <mxGeometry x="903" y="2529" width="112" height="58" as="geometry" />
        </mxCell>
        <mxCell id="ZNy7eVGZJxYftqAqynXO-149" value="物品删除" style="ellipse;whiteSpace=wrap;html=1;" vertex="1" parent="1">
          <mxGeometry x="777" y="2540" width="112" height="58" as="geometry" />
        </mxCell>
        <mxCell id="ZNy7eVGZJxYftqAqynXO-160" value="" style="endArrow=classic;html=1;rounded=0;entryX=0.5;entryY=1;entryDx=0;entryDy=0;" edge="1" parent="1" target="ZNy7eVGZJxYftqAqynXO-125">
          <mxGeometry width="50" height="50" relative="1" as="geometry">
            <mxPoint x="743" y="2308" as="sourcePoint" />
            <mxPoint x="723" y="2281" as="targetPoint" />
          </mxGeometry>
        </mxCell>
        <mxCell id="ZNy7eVGZJxYftqAqynXO-161" value="" style="endArrow=classic;html=1;rounded=0;entryX=1;entryY=0.5;entryDx=0;entryDy=0;" edge="1" parent="1" target="ZNy7eVGZJxYftqAqynXO-126">
          <mxGeometry width="50" height="50" relative="1" as="geometry">
            <mxPoint x="713" y="2341" as="sourcePoint" />
            <mxPoint x="646" y="2314" as="targetPoint" />
          </mxGeometry>
        </mxCell>
        <mxCell id="ZNy7eVGZJxYftqAqynXO-162" value="" style="endArrow=classic;html=1;rounded=0;entryX=1;entryY=0;entryDx=0;entryDy=0;" edge="1" parent="1" target="ZNy7eVGZJxYftqAqynXO-127">
          <mxGeometry width="50" height="50" relative="1" as="geometry">
            <mxPoint x="721" y="2387" as="sourcePoint" />
            <mxPoint x="737" y="2376" as="targetPoint" />
          </mxGeometry>
        </mxCell>
        <mxCell id="ZNy7eVGZJxYftqAqynXO-163" value="" style="endArrow=classic;html=1;rounded=0;entryX=0;entryY=0;entryDx=0;entryDy=0;" edge="1" parent="1" target="ZNy7eVGZJxYftqAqynXO-129">
          <mxGeometry width="50" height="50" relative="1" as="geometry">
            <mxPoint x="789" y="2390" as="sourcePoint" />
            <mxPoint x="857" y="2361" as="targetPoint" />
          </mxGeometry>
        </mxCell>
        <mxCell id="ZNy7eVGZJxYftqAqynXO-164" value="" style="endArrow=classic;html=1;rounded=0;entryX=0;entryY=0.5;entryDx=0;entryDy=0;" edge="1" parent="1" target="ZNy7eVGZJxYftqAqynXO-128">
          <mxGeometry width="50" height="50" relative="1" as="geometry">
            <mxPoint x="784" y="2330" as="sourcePoint" />
            <mxPoint x="834" y="2326" as="targetPoint" />
          </mxGeometry>
        </mxCell>
        <mxCell id="ZNy7eVGZJxYftqAqynXO-165" value="服务中心管理者" style="text;html=1;strokeColor=none;fillColor=none;align=center;verticalAlign=middle;whiteSpace=wrap;rounded=0;fontSize=18;fontStyle=1" vertex="1" parent="1">
          <mxGeometry x="665" y="2439" width="178" height="52" as="geometry" />
        </mxCell>
        <mxCell id="ZNy7eVGZJxYftqAqynXO-166" value="&amp;lt;&amp;lt;包含&amp;gt;&amp;gt;" style="text;html=1;strokeColor=none;fillColor=none;align=center;verticalAlign=middle;whiteSpace=wrap;rounded=0;" vertex="1" parent="1">
          <mxGeometry x="465" y="2275" width="60" height="30" as="geometry" />
        </mxCell>
        <mxCell id="ZNy7eVGZJxYftqAqynXO-167" value="&amp;lt;&amp;lt;包含&amp;gt;&amp;gt;" style="text;html=1;strokeColor=none;fillColor=none;align=center;verticalAlign=middle;whiteSpace=wrap;rounded=0;" vertex="1" parent="1">
          <mxGeometry x="497" y="2432" width="60" height="30" as="geometry" />
        </mxCell>
        <mxCell id="ZNy7eVGZJxYftqAqynXO-168" value="&amp;lt;&amp;lt;包含&amp;gt;&amp;gt;" style="text;html=1;strokeColor=none;fillColor=none;align=center;verticalAlign=middle;whiteSpace=wrap;rounded=0;" vertex="1" parent="1">
          <mxGeometry x="507.5" y="2491" width="60" height="30" as="geometry" />
        </mxCell>
        <mxCell id="ZNy7eVGZJxYftqAqynXO-169" value="&amp;lt;&amp;lt;包含&amp;gt;&amp;gt;" style="text;html=1;strokeColor=none;fillColor=none;align=center;verticalAlign=middle;whiteSpace=wrap;rounded=0;" vertex="1" parent="1">
          <mxGeometry x="927" y="2242" width="60" height="30" as="geometry" />
        </mxCell>
        <mxCell id="ZNy7eVGZJxYftqAqynXO-170" value="&amp;lt;&amp;lt;包含&amp;gt;&amp;gt;" style="text;html=1;strokeColor=none;fillColor=none;align=center;verticalAlign=middle;whiteSpace=wrap;rounded=0;" vertex="1" parent="1">
          <mxGeometry x="936" y="2309" width="60" height="30" as="geometry" />
        </mxCell>
        <mxCell id="ZNy7eVGZJxYftqAqynXO-171" value="&amp;lt;&amp;lt;包含&amp;gt;&amp;gt;" style="text;html=1;strokeColor=none;fillColor=none;align=center;verticalAlign=middle;whiteSpace=wrap;rounded=0;" vertex="1" parent="1">
          <mxGeometry x="955" y="2440" width="60" height="30" as="geometry" />
        </mxCell>
        <mxCell id="ZNy7eVGZJxYftqAqynXO-172" value="&amp;lt;&amp;lt;包含&amp;gt;&amp;gt;" style="text;html=1;strokeColor=none;fillColor=none;align=center;verticalAlign=middle;whiteSpace=wrap;rounded=0;" vertex="1" parent="1">
          <mxGeometry x="834" y="2499" width="60" height="30" as="geometry" />
        </mxCell>
        <mxCell id="ZNy7eVGZJxYftqAqynXO-173" value="&amp;lt;&amp;lt;包含&amp;gt;&amp;gt;" style="text;html=1;strokeColor=none;fillColor=none;align=center;verticalAlign=middle;whiteSpace=wrap;rounded=0;" vertex="1" parent="1">
          <mxGeometry x="905" y="2488" width="60" height="30" as="geometry" />
        </mxCell>
        <mxCell id="ZNy7eVGZJxYftqAqynXO-174" value="&amp;lt;&amp;lt;包含&amp;gt;&amp;gt;" style="text;html=1;strokeColor=none;fillColor=none;align=center;verticalAlign=middle;whiteSpace=wrap;rounded=0;" vertex="1" parent="1">
          <mxGeometry x="929" y="2202" width="60" height="30" as="geometry" />
        </mxCell>
        <mxCell id="ZNy7eVGZJxYftqAqynXO-175" value="&amp;lt;&amp;lt;包含&amp;gt;&amp;gt;" style="text;html=1;strokeColor=none;fillColor=none;align=center;verticalAlign=middle;whiteSpace=wrap;rounded=0;" vertex="1" parent="1">
          <mxGeometry x="1027" y="2174" width="60" height="30" as="geometry" />
        </mxCell>
        <mxCell id="ZNy7eVGZJxYftqAqynXO-176" value="&amp;lt;&amp;lt;包含&amp;gt;&amp;gt;" style="text;html=1;strokeColor=none;fillColor=none;align=center;verticalAlign=middle;whiteSpace=wrap;rounded=0;" vertex="1" parent="1">
          <mxGeometry x="1086" y="2193" width="60" height="30" as="geometry" />
        </mxCell>
        <mxCell id="ZNy7eVGZJxYftqAqynXO-177" value="&amp;lt;&amp;lt;包含&amp;gt;&amp;gt;" style="text;html=1;strokeColor=none;fillColor=none;align=center;verticalAlign=middle;whiteSpace=wrap;rounded=0;" vertex="1" parent="1">
          <mxGeometry x="1094" y="2318" width="60" height="30" as="geometry" />
        </mxCell>
        <mxCell id="ZNy7eVGZJxYftqAqynXO-178" value="&amp;lt;&amp;lt;包含&amp;gt;&amp;gt;" style="text;html=1;strokeColor=none;fillColor=none;align=center;verticalAlign=middle;whiteSpace=wrap;rounded=0;" vertex="1" parent="1">
          <mxGeometry x="1080" y="2357" width="60" height="30" as="geometry" />
        </mxCell>
      </root>
    </mxGraphModel>
  </diagram>
</mxfile>
